<?xml version="1.0" encoding="utf-8" standalone="no"?>
<!DOCTYPE svg PUBLIC "-//W3C//DTD SVG 1.1//EN"
  "http://www.w3.org/Graphics/SVG/1.1/DTD/svg11.dtd">
<svg xmlns:xlink="http://www.w3.org/1999/xlink" width="576pt" height="288pt" viewBox="0 0 576 288" xmlns="http://www.w3.org/2000/svg" version="1.1">
 <metadata>
  <rdf:RDF xmlns:dc="http://purl.org/dc/elements/1.1/" xmlns:cc="http://creativecommons.org/ns#" xmlns:rdf="http://www.w3.org/1999/02/22-rdf-syntax-ns#">
   <cc:Work>
    <dc:type rdf:resource="http://purl.org/dc/dcmitype/StillImage"/>
    <dc:date>2024-05-20T23:16:25.580147</dc:date>
    <dc:format>image/svg+xml</dc:format>
    <dc:creator>
     <cc:Agent>
      <dc:title>Matplotlib v3.8.3, https://matplotlib.org/</dc:title>
     </cc:Agent>
    </dc:creator>
   </cc:Work>
  </rdf:RDF>
 </metadata>
 <defs>
  <style type="text/css">*{stroke-linejoin: round; stroke-linecap: butt}</style>
 </defs>
 <g id="figure_1">
  <g id="patch_1">
   <path d="M 0 288 
L 576 288 
L 576 0 
L 0 0 
z
" style="fill: #ffffff"/>
  </g>
  <g id="axes_1">
   <g id="PathCollection_1">
    <defs>
     <path id="md93062b6ae" d="M -5 5 
L 5 5 
L 5 -5 
L -5 -5 
z
" style="stroke: #87ceeb"/>
    </defs>
    <g clip-path="url(#p87896cd4c6)">
     <use xlink:href="#md93062b6ae" x="288.65268" y="131.306" style="fill: #87ceeb; stroke: #87ceeb"/>
    </g>
   </g>
   <g id="PathCollection_2">
    <defs>
     <path id="m8e908af0bd" d="M 0 3 
C 0.795609 3 1.55874 2.683901 2.12132 2.12132 
C 2.683901 1.55874 3 0.795609 3 0 
C 3 -0.795609 2.683901 -1.55874 2.12132 -2.12132 
C 1.55874 -2.683901 0.795609 -3 0 -3 
C -0.795609 -3 -1.55874 -2.683901 -2.12132 -2.12132 
C -2.683901 -1.55874 -3 -0.795609 -3 0 
C -3 0.795609 -2.683901 1.55874 -2.12132 2.12132 
C -1.55874 2.683901 -0.795609 3 0 3 
z
" style="stroke: #1f77b4"/>
    </defs>
    <g clip-path="url(#p87896cd4c6)">
     <use xlink:href="#m8e908af0bd" x="40.1855" y="143.574" style="fill: #1f77b4; stroke: #1f77b4"/>
     <use xlink:href="#m8e908af0bd" x="236.5505" y="119.038" style="fill: #1f77b4; stroke: #1f77b4"/>
     <use xlink:href="#m8e908af0bd" x="236.5505" y="69.966" style="fill: #1f77b4; stroke: #1f77b4"/>
     <use xlink:href="#m8e908af0bd" x="105.6405" y="155.842" style="fill: #1f77b4; stroke: #1f77b4"/>
     <use xlink:href="#m8e908af0bd" x="184.1865" y="143.574" style="fill: #1f77b4; stroke: #1f77b4"/>
     <use xlink:href="#m8e908af0bd" x="144.9135" y="229.45" style="fill: #1f77b4; stroke: #1f77b4"/>
     <use xlink:href="#m8e908af0bd" x="288.9145" y="119.038" style="fill: #1f77b4; stroke: #1f77b4"/>
     <use xlink:href="#m8e908af0bd" x="262.7325" y="217.182" style="fill: #1f77b4; stroke: #1f77b4"/>
     <use xlink:href="#m8e908af0bd" x="249.6415" y="82.234" style="fill: #1f77b4; stroke: #1f77b4"/>
     <use xlink:href="#m8e908af0bd" x="210.3685" y="168.11" style="fill: #1f77b4; stroke: #1f77b4"/>
     <use xlink:href="#m8e908af0bd" x="158.0045" y="119.038" style="fill: #1f77b4; stroke: #1f77b4"/>
     <use xlink:href="#m8e908af0bd" x="288.9145" y="155.842" style="fill: #1f77b4; stroke: #1f77b4"/>
     <use xlink:href="#m8e908af0bd" x="262.7325" y="229.45" style="fill: #1f77b4; stroke: #1f77b4"/>
     <use xlink:href="#m8e908af0bd" x="249.6415" y="57.698" style="fill: #1f77b4; stroke: #1f77b4"/>
     <use xlink:href="#m8e908af0bd" x="66.3675" y="57.698" style="fill: #1f77b4; stroke: #1f77b4"/>
     <use xlink:href="#m8e908af0bd" x="66.3675" y="119.038" style="fill: #1f77b4; stroke: #1f77b4"/>
     <use xlink:href="#m8e908af0bd" x="79.4585" y="69.966" style="fill: #1f77b4; stroke: #1f77b4"/>
     <use xlink:href="#m8e908af0bd" x="79.4585" y="180.378" style="fill: #1f77b4; stroke: #1f77b4"/>
     <use xlink:href="#m8e908af0bd" x="275.8235" y="106.77" style="fill: #1f77b4; stroke: #1f77b4"/>
     <use xlink:href="#m8e908af0bd" x="40.1855" y="168.11" style="fill: #1f77b4; stroke: #1f77b4"/>
     <use xlink:href="#m8e908af0bd" x="105.6405" y="217.182" style="fill: #1f77b4; stroke: #1f77b4"/>
     <use xlink:href="#m8e908af0bd" x="236.5505" y="57.698" style="fill: #1f77b4; stroke: #1f77b4"/>
     <use xlink:href="#m8e908af0bd" x="171.0955" y="155.842" style="fill: #1f77b4; stroke: #1f77b4"/>
     <use xlink:href="#m8e908af0bd" x="275.8235" y="143.574" style="fill: #1f77b4; stroke: #1f77b4"/>
     <use xlink:href="#m8e908af0bd" x="144.9135" y="57.698" style="fill: #1f77b4; stroke: #1f77b4"/>
     <use xlink:href="#m8e908af0bd" x="288.9145" y="82.234" style="fill: #1f77b4; stroke: #1f77b4"/>
     <use xlink:href="#m8e908af0bd" x="171.0955" y="82.234" style="fill: #1f77b4; stroke: #1f77b4"/>
     <use xlink:href="#m8e908af0bd" x="92.5495" y="119.038" style="fill: #1f77b4; stroke: #1f77b4"/>
     <use xlink:href="#m8e908af0bd" x="144.9135" y="217.182" style="fill: #1f77b4; stroke: #1f77b4"/>
     <use xlink:href="#m8e908af0bd" x="184.1865" y="217.182" style="fill: #1f77b4; stroke: #1f77b4"/>
     <use xlink:href="#m8e908af0bd" x="66.3675" y="217.182" style="fill: #1f77b4; stroke: #1f77b4"/>
     <use xlink:href="#m8e908af0bd" x="131.8225" y="57.698" style="fill: #1f77b4; stroke: #1f77b4"/>
     <use xlink:href="#m8e908af0bd" x="210.3685" y="119.038" style="fill: #1f77b4; stroke: #1f77b4"/>
     <use xlink:href="#m8e908af0bd" x="171.0955" y="217.182" style="fill: #1f77b4; stroke: #1f77b4"/>
     <use xlink:href="#m8e908af0bd" x="40.1855" y="33.162" style="fill: #1f77b4; stroke: #1f77b4"/>
     <use xlink:href="#m8e908af0bd" x="92.5495" y="82.234" style="fill: #1f77b4; stroke: #1f77b4"/>
     <use xlink:href="#m8e908af0bd" x="92.5495" y="168.11" style="fill: #1f77b4; stroke: #1f77b4"/>
     <use xlink:href="#m8e908af0bd" x="288.9145" y="241.718" style="fill: #1f77b4; stroke: #1f77b4"/>
     <use xlink:href="#m8e908af0bd" x="223.4595" y="155.842" style="fill: #1f77b4; stroke: #1f77b4"/>
     <use xlink:href="#m8e908af0bd" x="79.4585" y="204.914" style="fill: #1f77b4; stroke: #1f77b4"/>
    </g>
   </g>
   <g id="matplotlib.axis_1">
    <g id="xtick_1">
     <g id="line2d_1">
      <path d="M 33.64 260.12 
L 33.64 14.76 
" clip-path="url(#p87896cd4c6)" style="fill: none; stroke: #b0b0b0; stroke-width: 2; stroke-linecap: square"/>
     </g>
     <g id="line2d_2"/>
    </g>
    <g id="xtick_2">
     <g id="line2d_3">
      <path d="M 86.004 260.12 
L 86.004 14.76 
" clip-path="url(#p87896cd4c6)" style="fill: none; stroke: #b0b0b0; stroke-width: 2; stroke-linecap: square"/>
     </g>
     <g id="line2d_4"/>
    </g>
    <g id="xtick_3">
     <g id="line2d_5">
      <path d="M 138.368 260.12 
L 138.368 14.76 
" clip-path="url(#p87896cd4c6)" style="fill: none; stroke: #b0b0b0; stroke-width: 2; stroke-linecap: square"/>
     </g>
     <g id="line2d_6"/>
    </g>
    <g id="xtick_4">
     <g id="line2d_7">
      <path d="M 190.732 260.12 
L 190.732 14.76 
" clip-path="url(#p87896cd4c6)" style="fill: none; stroke: #b0b0b0; stroke-width: 2; stroke-linecap: square"/>
     </g>
     <g id="line2d_8"/>
    </g>
    <g id="xtick_5">
     <g id="line2d_9">
      <path d="M 243.096 260.12 
L 243.096 14.76 
" clip-path="url(#p87896cd4c6)" style="fill: none; stroke: #b0b0b0; stroke-width: 2; stroke-linecap: square"/>
     </g>
     <g id="line2d_10"/>
    </g>
    <g id="xtick_6">
     <g id="line2d_11">
      <path d="M 295.46 260.12 
L 295.46 14.76 
" clip-path="url(#p87896cd4c6)" style="fill: none; stroke: #b0b0b0; stroke-width: 2; stroke-linecap: square"/>
     </g>
     <g id="line2d_12"/>
    </g>
    <g id="xtick_7">
     <g id="line2d_13">
      <path d="M 46.731 260.12 
L 46.731 14.76 
" clip-path="url(#p87896cd4c6)" style="fill: none; stroke: #b0b0b0; stroke-width: 2; stroke-linecap: square"/>
     </g>
     <g id="line2d_14"/>
    </g>
    <g id="xtick_8">
     <g id="line2d_15">
      <path d="M 59.822 260.12 
L 59.822 14.76 
" clip-path="url(#p87896cd4c6)" style="fill: none; stroke: #b0b0b0; stroke-width: 2; stroke-linecap: square"/>
     </g>
     <g id="line2d_16"/>
    </g>
    <g id="xtick_9">
     <g id="line2d_17">
      <path d="M 72.913 260.12 
L 72.913 14.76 
" clip-path="url(#p87896cd4c6)" style="fill: none; stroke: #b0b0b0; stroke-width: 2; stroke-linecap: square"/>
     </g>
     <g id="line2d_18"/>
    </g>
    <g id="xtick_10">
     <g id="line2d_19">
      <path d="M 99.095 260.12 
L 99.095 14.76 
" clip-path="url(#p87896cd4c6)" style="fill: none; stroke: #b0b0b0; stroke-width: 2; stroke-linecap: square"/>
     </g>
     <g id="line2d_20"/>
    </g>
    <g id="xtick_11">
     <g id="line2d_21">
      <path d="M 112.186 260.12 
L 112.186 14.76 
" clip-path="url(#p87896cd4c6)" style="fill: none; stroke: #b0b0b0; stroke-width: 2; stroke-linecap: square"/>
     </g>
     <g id="line2d_22"/>
    </g>
    <g id="xtick_12">
     <g id="line2d_23">
      <path d="M 125.277 260.12 
L 125.277 14.76 
" clip-path="url(#p87896cd4c6)" style="fill: none; stroke: #b0b0b0; stroke-width: 2; stroke-linecap: square"/>
     </g>
     <g id="line2d_24"/>
    </g>
    <g id="xtick_13">
     <g id="line2d_25">
      <path d="M 151.459 260.12 
L 151.459 14.76 
" clip-path="url(#p87896cd4c6)" style="fill: none; stroke: #b0b0b0; stroke-width: 2; stroke-linecap: square"/>
     </g>
     <g id="line2d_26"/>
    </g>
    <g id="xtick_14">
     <g id="line2d_27">
      <path d="M 164.55 260.12 
L 164.55 14.76 
" clip-path="url(#p87896cd4c6)" style="fill: none; stroke: #b0b0b0; stroke-width: 2; stroke-linecap: square"/>
     </g>
     <g id="line2d_28"/>
    </g>
    <g id="xtick_15">
     <g id="line2d_29">
      <path d="M 177.641 260.12 
L 177.641 14.76 
" clip-path="url(#p87896cd4c6)" style="fill: none; stroke: #b0b0b0; stroke-width: 2; stroke-linecap: square"/>
     </g>
     <g id="line2d_30"/>
    </g>
    <g id="xtick_16">
     <g id="line2d_31">
      <path d="M 203.823 260.12 
L 203.823 14.76 
" clip-path="url(#p87896cd4c6)" style="fill: none; stroke: #b0b0b0; stroke-width: 2; stroke-linecap: square"/>
     </g>
     <g id="line2d_32"/>
    </g>
    <g id="xtick_17">
     <g id="line2d_33">
      <path d="M 216.914 260.12 
L 216.914 14.76 
" clip-path="url(#p87896cd4c6)" style="fill: none; stroke: #b0b0b0; stroke-width: 2; stroke-linecap: square"/>
     </g>
     <g id="line2d_34"/>
    </g>
    <g id="xtick_18">
     <g id="line2d_35">
      <path d="M 230.005 260.12 
L 230.005 14.76 
" clip-path="url(#p87896cd4c6)" style="fill: none; stroke: #b0b0b0; stroke-width: 2; stroke-linecap: square"/>
     </g>
     <g id="line2d_36"/>
    </g>
    <g id="xtick_19">
     <g id="line2d_37">
      <path d="M 256.187 260.12 
L 256.187 14.76 
" clip-path="url(#p87896cd4c6)" style="fill: none; stroke: #b0b0b0; stroke-width: 2; stroke-linecap: square"/>
     </g>
     <g id="line2d_38"/>
    </g>
    <g id="xtick_20">
     <g id="line2d_39">
      <path d="M 269.278 260.12 
L 269.278 14.76 
" clip-path="url(#p87896cd4c6)" style="fill: none; stroke: #b0b0b0; stroke-width: 2; stroke-linecap: square"/>
     </g>
     <g id="line2d_40"/>
    </g>
    <g id="xtick_21">
     <g id="line2d_41">
      <path d="M 282.369 260.12 
L 282.369 14.76 
" clip-path="url(#p87896cd4c6)" style="fill: none; stroke: #b0b0b0; stroke-width: 2; stroke-linecap: square"/>
     </g>
     <g id="line2d_42"/>
    </g>
    <g id="text_1">
     <!-- Compartimento A -->
     <g transform="translate(76.132813 282.816875) scale(0.2 -0.2)">
      <defs>
       <path id="DejaVuSans-43" d="M 4122 4306 
L 4122 3641 
Q 3803 3938 3442 4084 
Q 3081 4231 2675 4231 
Q 1875 4231 1450 3742 
Q 1025 3253 1025 2328 
Q 1025 1406 1450 917 
Q 1875 428 2675 428 
Q 3081 428 3442 575 
Q 3803 722 4122 1019 
L 4122 359 
Q 3791 134 3420 21 
Q 3050 -91 2638 -91 
Q 1578 -91 968 557 
Q 359 1206 359 2328 
Q 359 3453 968 4101 
Q 1578 4750 2638 4750 
Q 3056 4750 3426 4639 
Q 3797 4528 4122 4306 
z
" transform="scale(0.015625)"/>
       <path id="DejaVuSans-6f" d="M 1959 3097 
Q 1497 3097 1228 2736 
Q 959 2375 959 1747 
Q 959 1119 1226 758 
Q 1494 397 1959 397 
Q 2419 397 2687 759 
Q 2956 1122 2956 1747 
Q 2956 2369 2687 2733 
Q 2419 3097 1959 3097 
z
M 1959 3584 
Q 2709 3584 3137 3096 
Q 3566 2609 3566 1747 
Q 3566 888 3137 398 
Q 2709 -91 1959 -91 
Q 1206 -91 779 398 
Q 353 888 353 1747 
Q 353 2609 779 3096 
Q 1206 3584 1959 3584 
z
" transform="scale(0.015625)"/>
       <path id="DejaVuSans-6d" d="M 3328 2828 
Q 3544 3216 3844 3400 
Q 4144 3584 4550 3584 
Q 5097 3584 5394 3201 
Q 5691 2819 5691 2113 
L 5691 0 
L 5113 0 
L 5113 2094 
Q 5113 2597 4934 2840 
Q 4756 3084 4391 3084 
Q 3944 3084 3684 2787 
Q 3425 2491 3425 1978 
L 3425 0 
L 2847 0 
L 2847 2094 
Q 2847 2600 2669 2842 
Q 2491 3084 2119 3084 
Q 1678 3084 1418 2786 
Q 1159 2488 1159 1978 
L 1159 0 
L 581 0 
L 581 3500 
L 1159 3500 
L 1159 2956 
Q 1356 3278 1631 3431 
Q 1906 3584 2284 3584 
Q 2666 3584 2933 3390 
Q 3200 3197 3328 2828 
z
" transform="scale(0.015625)"/>
       <path id="DejaVuSans-70" d="M 1159 525 
L 1159 -1331 
L 581 -1331 
L 581 3500 
L 1159 3500 
L 1159 2969 
Q 1341 3281 1617 3432 
Q 1894 3584 2278 3584 
Q 2916 3584 3314 3078 
Q 3713 2572 3713 1747 
Q 3713 922 3314 415 
Q 2916 -91 2278 -91 
Q 1894 -91 1617 61 
Q 1341 213 1159 525 
z
M 3116 1747 
Q 3116 2381 2855 2742 
Q 2594 3103 2138 3103 
Q 1681 3103 1420 2742 
Q 1159 2381 1159 1747 
Q 1159 1113 1420 752 
Q 1681 391 2138 391 
Q 2594 391 2855 752 
Q 3116 1113 3116 1747 
z
" transform="scale(0.015625)"/>
       <path id="DejaVuSans-61" d="M 2194 1759 
Q 1497 1759 1228 1600 
Q 959 1441 959 1056 
Q 959 750 1161 570 
Q 1363 391 1709 391 
Q 2188 391 2477 730 
Q 2766 1069 2766 1631 
L 2766 1759 
L 2194 1759 
z
M 3341 1997 
L 3341 0 
L 2766 0 
L 2766 531 
Q 2569 213 2275 61 
Q 1981 -91 1556 -91 
Q 1019 -91 701 211 
Q 384 513 384 1019 
Q 384 1609 779 1909 
Q 1175 2209 1959 2209 
L 2766 2209 
L 2766 2266 
Q 2766 2663 2505 2880 
Q 2244 3097 1772 3097 
Q 1472 3097 1187 3025 
Q 903 2953 641 2809 
L 641 3341 
Q 956 3463 1253 3523 
Q 1550 3584 1831 3584 
Q 2591 3584 2966 3190 
Q 3341 2797 3341 1997 
z
" transform="scale(0.015625)"/>
       <path id="DejaVuSans-72" d="M 2631 2963 
Q 2534 3019 2420 3045 
Q 2306 3072 2169 3072 
Q 1681 3072 1420 2755 
Q 1159 2438 1159 1844 
L 1159 0 
L 581 0 
L 581 3500 
L 1159 3500 
L 1159 2956 
Q 1341 3275 1631 3429 
Q 1922 3584 2338 3584 
Q 2397 3584 2469 3576 
Q 2541 3569 2628 3553 
L 2631 2963 
z
" transform="scale(0.015625)"/>
       <path id="DejaVuSans-74" d="M 1172 4494 
L 1172 3500 
L 2356 3500 
L 2356 3053 
L 1172 3053 
L 1172 1153 
Q 1172 725 1289 603 
Q 1406 481 1766 481 
L 2356 481 
L 2356 0 
L 1766 0 
Q 1100 0 847 248 
Q 594 497 594 1153 
L 594 3053 
L 172 3053 
L 172 3500 
L 594 3500 
L 594 4494 
L 1172 4494 
z
" transform="scale(0.015625)"/>
       <path id="DejaVuSans-69" d="M 603 3500 
L 1178 3500 
L 1178 0 
L 603 0 
L 603 3500 
z
M 603 4863 
L 1178 4863 
L 1178 4134 
L 603 4134 
L 603 4863 
z
" transform="scale(0.015625)"/>
       <path id="DejaVuSans-65" d="M 3597 1894 
L 3597 1613 
L 953 1613 
Q 991 1019 1311 708 
Q 1631 397 2203 397 
Q 2534 397 2845 478 
Q 3156 559 3463 722 
L 3463 178 
Q 3153 47 2828 -22 
Q 2503 -91 2169 -91 
Q 1331 -91 842 396 
Q 353 884 353 1716 
Q 353 2575 817 3079 
Q 1281 3584 2069 3584 
Q 2775 3584 3186 3129 
Q 3597 2675 3597 1894 
z
M 3022 2063 
Q 3016 2534 2758 2815 
Q 2500 3097 2075 3097 
Q 1594 3097 1305 2825 
Q 1016 2553 972 2059 
L 3022 2063 
z
" transform="scale(0.015625)"/>
       <path id="DejaVuSans-6e" d="M 3513 2113 
L 3513 0 
L 2938 0 
L 2938 2094 
Q 2938 2591 2744 2837 
Q 2550 3084 2163 3084 
Q 1697 3084 1428 2787 
Q 1159 2491 1159 1978 
L 1159 0 
L 581 0 
L 581 3500 
L 1159 3500 
L 1159 2956 
Q 1366 3272 1645 3428 
Q 1925 3584 2291 3584 
Q 2894 3584 3203 3211 
Q 3513 2838 3513 2113 
z
" transform="scale(0.015625)"/>
       <path id="DejaVuSans-20" transform="scale(0.015625)"/>
       <path id="DejaVuSans-41" d="M 2188 4044 
L 1331 1722 
L 3047 1722 
L 2188 4044 
z
M 1831 4666 
L 2547 4666 
L 4325 0 
L 3669 0 
L 3244 1197 
L 1141 1197 
L 716 0 
L 50 0 
L 1831 4666 
z
" transform="scale(0.015625)"/>
      </defs>
      <use xlink:href="#DejaVuSans-43"/>
      <use xlink:href="#DejaVuSans-6f" x="69.824219"/>
      <use xlink:href="#DejaVuSans-6d" x="131.005859"/>
      <use xlink:href="#DejaVuSans-70" x="228.417969"/>
      <use xlink:href="#DejaVuSans-61" x="291.894531"/>
      <use xlink:href="#DejaVuSans-72" x="353.173828"/>
      <use xlink:href="#DejaVuSans-74" x="394.287109"/>
      <use xlink:href="#DejaVuSans-69" x="433.496094"/>
      <use xlink:href="#DejaVuSans-6d" x="461.279297"/>
      <use xlink:href="#DejaVuSans-65" x="558.691406"/>
      <use xlink:href="#DejaVuSans-6e" x="620.214844"/>
      <use xlink:href="#DejaVuSans-74" x="683.59375"/>
      <use xlink:href="#DejaVuSans-6f" x="722.802734"/>
      <use xlink:href="#DejaVuSans-20" x="783.984375"/>
      <use xlink:href="#DejaVuSans-41" x="815.771484"/>
     </g>
    </g>
   </g>
   <g id="matplotlib.axis_2">
    <g id="ytick_1">
     <g id="line2d_43">
      <path d="M 33.64 260.12 
L 295.46 260.12 
" clip-path="url(#p87896cd4c6)" style="fill: none; stroke: #b0b0b0; stroke-width: 2; stroke-linecap: square"/>
     </g>
     <g id="line2d_44"/>
    </g>
    <g id="ytick_2">
     <g id="line2d_45">
      <path d="M 33.64 211.048 
L 295.46 211.048 
" clip-path="url(#p87896cd4c6)" style="fill: none; stroke: #b0b0b0; stroke-width: 2; stroke-linecap: square"/>
     </g>
     <g id="line2d_46"/>
    </g>
    <g id="ytick_3">
     <g id="line2d_47">
      <path d="M 33.64 161.976 
L 295.46 161.976 
" clip-path="url(#p87896cd4c6)" style="fill: none; stroke: #b0b0b0; stroke-width: 2; stroke-linecap: square"/>
     </g>
     <g id="line2d_48"/>
    </g>
    <g id="ytick_4">
     <g id="line2d_49">
      <path d="M 33.64 112.904 
L 295.46 112.904 
" clip-path="url(#p87896cd4c6)" style="fill: none; stroke: #b0b0b0; stroke-width: 2; stroke-linecap: square"/>
     </g>
     <g id="line2d_50"/>
    </g>
    <g id="ytick_5">
     <g id="line2d_51">
      <path d="M 33.64 63.832 
L 295.46 63.832 
" clip-path="url(#p87896cd4c6)" style="fill: none; stroke: #b0b0b0; stroke-width: 2; stroke-linecap: square"/>
     </g>
     <g id="line2d_52"/>
    </g>
    <g id="ytick_6">
     <g id="line2d_53">
      <path d="M 33.64 14.76 
L 295.46 14.76 
" clip-path="url(#p87896cd4c6)" style="fill: none; stroke: #b0b0b0; stroke-width: 2; stroke-linecap: square"/>
     </g>
     <g id="line2d_54"/>
    </g>
    <g id="ytick_7">
     <g id="line2d_55">
      <path d="M 33.64 247.852 
L 295.46 247.852 
" clip-path="url(#p87896cd4c6)" style="fill: none; stroke: #b0b0b0; stroke-width: 2; stroke-linecap: square"/>
     </g>
     <g id="line2d_56"/>
    </g>
    <g id="ytick_8">
     <g id="line2d_57">
      <path d="M 33.64 235.584 
L 295.46 235.584 
" clip-path="url(#p87896cd4c6)" style="fill: none; stroke: #b0b0b0; stroke-width: 2; stroke-linecap: square"/>
     </g>
     <g id="line2d_58"/>
    </g>
    <g id="ytick_9">
     <g id="line2d_59">
      <path d="M 33.64 223.316 
L 295.46 223.316 
" clip-path="url(#p87896cd4c6)" style="fill: none; stroke: #b0b0b0; stroke-width: 2; stroke-linecap: square"/>
     </g>
     <g id="line2d_60"/>
    </g>
    <g id="ytick_10">
     <g id="line2d_61">
      <path d="M 33.64 198.78 
L 295.46 198.78 
" clip-path="url(#p87896cd4c6)" style="fill: none; stroke: #b0b0b0; stroke-width: 2; stroke-linecap: square"/>
     </g>
     <g id="line2d_62"/>
    </g>
    <g id="ytick_11">
     <g id="line2d_63">
      <path d="M 33.64 186.512 
L 295.46 186.512 
" clip-path="url(#p87896cd4c6)" style="fill: none; stroke: #b0b0b0; stroke-width: 2; stroke-linecap: square"/>
     </g>
     <g id="line2d_64"/>
    </g>
    <g id="ytick_12">
     <g id="line2d_65">
      <path d="M 33.64 174.244 
L 295.46 174.244 
" clip-path="url(#p87896cd4c6)" style="fill: none; stroke: #b0b0b0; stroke-width: 2; stroke-linecap: square"/>
     </g>
     <g id="line2d_66"/>
    </g>
    <g id="ytick_13">
     <g id="line2d_67">
      <path d="M 33.64 149.708 
L 295.46 149.708 
" clip-path="url(#p87896cd4c6)" style="fill: none; stroke: #b0b0b0; stroke-width: 2; stroke-linecap: square"/>
     </g>
     <g id="line2d_68"/>
    </g>
    <g id="ytick_14">
     <g id="line2d_69">
      <path d="M 33.64 137.44 
L 295.46 137.44 
" clip-path="url(#p87896cd4c6)" style="fill: none; stroke: #b0b0b0; stroke-width: 2; stroke-linecap: square"/>
     </g>
     <g id="line2d_70"/>
    </g>
    <g id="ytick_15">
     <g id="line2d_71">
      <path d="M 33.64 125.172 
L 295.46 125.172 
" clip-path="url(#p87896cd4c6)" style="fill: none; stroke: #b0b0b0; stroke-width: 2; stroke-linecap: square"/>
     </g>
     <g id="line2d_72"/>
    </g>
    <g id="ytick_16">
     <g id="line2d_73">
      <path d="M 33.64 100.636 
L 295.46 100.636 
" clip-path="url(#p87896cd4c6)" style="fill: none; stroke: #b0b0b0; stroke-width: 2; stroke-linecap: square"/>
     </g>
     <g id="line2d_74"/>
    </g>
    <g id="ytick_17">
     <g id="line2d_75">
      <path d="M 33.64 88.368 
L 295.46 88.368 
" clip-path="url(#p87896cd4c6)" style="fill: none; stroke: #b0b0b0; stroke-width: 2; stroke-linecap: square"/>
     </g>
     <g id="line2d_76"/>
    </g>
    <g id="ytick_18">
     <g id="line2d_77">
      <path d="M 33.64 76.1 
L 295.46 76.1 
" clip-path="url(#p87896cd4c6)" style="fill: none; stroke: #b0b0b0; stroke-width: 2; stroke-linecap: square"/>
     </g>
     <g id="line2d_78"/>
    </g>
    <g id="ytick_19">
     <g id="line2d_79">
      <path d="M 33.64 51.564 
L 295.46 51.564 
" clip-path="url(#p87896cd4c6)" style="fill: none; stroke: #b0b0b0; stroke-width: 2; stroke-linecap: square"/>
     </g>
     <g id="line2d_80"/>
    </g>
    <g id="ytick_20">
     <g id="line2d_81">
      <path d="M 33.64 39.296 
L 295.46 39.296 
" clip-path="url(#p87896cd4c6)" style="fill: none; stroke: #b0b0b0; stroke-width: 2; stroke-linecap: square"/>
     </g>
     <g id="line2d_82"/>
    </g>
    <g id="ytick_21">
     <g id="line2d_83">
      <path d="M 33.64 27.028 
L 295.46 27.028 
" clip-path="url(#p87896cd4c6)" style="fill: none; stroke: #b0b0b0; stroke-width: 2; stroke-linecap: square"/>
     </g>
     <g id="line2d_84"/>
    </g>
   </g>
   <g id="line2d_85">
    <path d="M 34.9491 258.8932 
L 294.1509 258.8932 
L 294.1509 15.49608 
L 34.9491 15.49608 
L 34.9491 260.12 
" clip-path="url(#p87896cd4c6)" style="fill: none; stroke: #000000; stroke-width: 2; stroke-linecap: square"/>
   </g>
   <g id="line2d_86">
    <path d="M 295.46 134.9864 
L 295.46 127.6256 
" clip-path="url(#p87896cd4c6)" style="fill: none; stroke: #87ceeb; stroke-width: 6; stroke-linecap: square"/>
   </g>
   <g id="line2d_87">
    <path d="M 295.46 134.9864 
L 295.46 127.6256 
" clip-path="url(#p87896cd4c6)" style="fill: none; stroke-dasharray: 3.7,1.6; stroke-dashoffset: 0; stroke: #808080"/>
   </g>
   <g id="line2d_88">
    <path d="M 290.2236 125.172 
L 295.46 125.172 
" clip-path="url(#p87896cd4c6)" style="fill: none; stroke: #000000; stroke-width: 3; stroke-linecap: square"/>
   </g>
   <g id="line2d_89">
    <path d="M 290.2236 137.44 
L 295.46 137.44 
" clip-path="url(#p87896cd4c6)" style="fill: none; stroke: #000000; stroke-width: 3; stroke-linecap: square"/>
   </g>
  </g>
  <g id="axes_2">
   <g id="PathCollection_3">
    <g clip-path="url(#p20be51bf7b)">
     <use xlink:href="#md93062b6ae" x="302.0055" y="131.306" style="fill: #87ceeb; stroke: #87ceeb"/>
    </g>
   </g>
   <g id="PathCollection_4">
    <g clip-path="url(#p20be51bf7b)">
     <use xlink:href="#m8e908af0bd" x="550.7345" y="82.234" style="fill: #1f77b4; stroke: #1f77b4"/>
     <use xlink:href="#m8e908af0bd" x="419.8245" y="180.378" style="fill: #1f77b4; stroke: #1f77b4"/>
     <use xlink:href="#m8e908af0bd" x="524.5525" y="20.894" style="fill: #1f77b4; stroke: #1f77b4"/>
     <use xlink:href="#m8e908af0bd" x="472.1885" y="106.77" style="fill: #1f77b4; stroke: #1f77b4"/>
     <use xlink:href="#m8e908af0bd" x="446.0065" y="82.234" style="fill: #1f77b4; stroke: #1f77b4"/>
     <use xlink:href="#m8e908af0bd" x="315.0965" y="119.038" style="fill: #1f77b4; stroke: #1f77b4"/>
     <use xlink:href="#m8e908af0bd" x="328.1875" y="155.842" style="fill: #1f77b4; stroke: #1f77b4"/>
     <use xlink:href="#m8e908af0bd" x="393.6425" y="180.378" style="fill: #1f77b4; stroke: #1f77b4"/>
     <use xlink:href="#m8e908af0bd" x="367.4605" y="204.914" style="fill: #1f77b4; stroke: #1f77b4"/>
     <use xlink:href="#m8e908af0bd" x="485.2795" y="131.306" style="fill: #1f77b4; stroke: #1f77b4"/>
    </g>
   </g>
   <g id="matplotlib.axis_3">
    <g id="xtick_22">
     <g id="line2d_90">
      <path d="M 295.46 260.12 
L 295.46 14.76 
" clip-path="url(#p20be51bf7b)" style="fill: none; stroke: #b0b0b0; stroke-width: 2; stroke-linecap: square"/>
     </g>
     <g id="line2d_91"/>
    </g>
    <g id="xtick_23">
     <g id="line2d_92">
      <path d="M 347.824 260.12 
L 347.824 14.76 
" clip-path="url(#p20be51bf7b)" style="fill: none; stroke: #b0b0b0; stroke-width: 2; stroke-linecap: square"/>
     </g>
     <g id="line2d_93"/>
    </g>
    <g id="xtick_24">
     <g id="line2d_94">
      <path d="M 400.188 260.12 
L 400.188 14.76 
" clip-path="url(#p20be51bf7b)" style="fill: none; stroke: #b0b0b0; stroke-width: 2; stroke-linecap: square"/>
     </g>
     <g id="line2d_95"/>
    </g>
    <g id="xtick_25">
     <g id="line2d_96">
      <path d="M 452.552 260.12 
L 452.552 14.76 
" clip-path="url(#p20be51bf7b)" style="fill: none; stroke: #b0b0b0; stroke-width: 2; stroke-linecap: square"/>
     </g>
     <g id="line2d_97"/>
    </g>
    <g id="xtick_26">
     <g id="line2d_98">
      <path d="M 504.916 260.12 
L 504.916 14.76 
" clip-path="url(#p20be51bf7b)" style="fill: none; stroke: #b0b0b0; stroke-width: 2; stroke-linecap: square"/>
     </g>
     <g id="line2d_99"/>
    </g>
    <g id="xtick_27">
     <g id="line2d_100">
      <path d="M 557.28 260.12 
L 557.28 14.76 
" clip-path="url(#p20be51bf7b)" style="fill: none; stroke: #b0b0b0; stroke-width: 2; stroke-linecap: square"/>
     </g>
     <g id="line2d_101"/>
    </g>
    <g id="xtick_28">
     <g id="line2d_102">
      <path d="M 308.551 260.12 
L 308.551 14.76 
" clip-path="url(#p20be51bf7b)" style="fill: none; stroke: #b0b0b0; stroke-width: 2; stroke-linecap: square"/>
     </g>
     <g id="line2d_103"/>
    </g>
    <g id="xtick_29">
     <g id="line2d_104">
      <path d="M 321.642 260.12 
L 321.642 14.76 
" clip-path="url(#p20be51bf7b)" style="fill: none; stroke: #b0b0b0; stroke-width: 2; stroke-linecap: square"/>
     </g>
     <g id="line2d_105"/>
    </g>
    <g id="xtick_30">
     <g id="line2d_106">
      <path d="M 334.733 260.12 
L 334.733 14.76 
" clip-path="url(#p20be51bf7b)" style="fill: none; stroke: #b0b0b0; stroke-width: 2; stroke-linecap: square"/>
     </g>
     <g id="line2d_107"/>
    </g>
    <g id="xtick_31">
     <g id="line2d_108">
      <path d="M 360.915 260.12 
L 360.915 14.76 
" clip-path="url(#p20be51bf7b)" style="fill: none; stroke: #b0b0b0; stroke-width: 2; stroke-linecap: square"/>
     </g>
     <g id="line2d_109"/>
    </g>
    <g id="xtick_32">
     <g id="line2d_110">
      <path d="M 374.006 260.12 
L 374.006 14.76 
" clip-path="url(#p20be51bf7b)" style="fill: none; stroke: #b0b0b0; stroke-width: 2; stroke-linecap: square"/>
     </g>
     <g id="line2d_111"/>
    </g>
    <g id="xtick_33">
     <g id="line2d_112">
      <path d="M 387.097 260.12 
L 387.097 14.76 
" clip-path="url(#p20be51bf7b)" style="fill: none; stroke: #b0b0b0; stroke-width: 2; stroke-linecap: square"/>
     </g>
     <g id="line2d_113"/>
    </g>
    <g id="xtick_34">
     <g id="line2d_114">
      <path d="M 413.279 260.12 
L 413.279 14.76 
" clip-path="url(#p20be51bf7b)" style="fill: none; stroke: #b0b0b0; stroke-width: 2; stroke-linecap: square"/>
     </g>
     <g id="line2d_115"/>
    </g>
    <g id="xtick_35">
     <g id="line2d_116">
      <path d="M 426.37 260.12 
L 426.37 14.76 
" clip-path="url(#p20be51bf7b)" style="fill: none; stroke: #b0b0b0; stroke-width: 2; stroke-linecap: square"/>
     </g>
     <g id="line2d_117"/>
    </g>
    <g id="xtick_36">
     <g id="line2d_118">
      <path d="M 439.461 260.12 
L 439.461 14.76 
" clip-path="url(#p20be51bf7b)" style="fill: none; stroke: #b0b0b0; stroke-width: 2; stroke-linecap: square"/>
     </g>
     <g id="line2d_119"/>
    </g>
    <g id="xtick_37">
     <g id="line2d_120">
      <path d="M 465.643 260.12 
L 465.643 14.76 
" clip-path="url(#p20be51bf7b)" style="fill: none; stroke: #b0b0b0; stroke-width: 2; stroke-linecap: square"/>
     </g>
     <g id="line2d_121"/>
    </g>
    <g id="xtick_38">
     <g id="line2d_122">
      <path d="M 478.734 260.12 
L 478.734 14.76 
" clip-path="url(#p20be51bf7b)" style="fill: none; stroke: #b0b0b0; stroke-width: 2; stroke-linecap: square"/>
     </g>
     <g id="line2d_123"/>
    </g>
    <g id="xtick_39">
     <g id="line2d_124">
      <path d="M 491.825 260.12 
L 491.825 14.76 
" clip-path="url(#p20be51bf7b)" style="fill: none; stroke: #b0b0b0; stroke-width: 2; stroke-linecap: square"/>
     </g>
     <g id="line2d_125"/>
    </g>
    <g id="xtick_40">
     <g id="line2d_126">
      <path d="M 518.007 260.12 
L 518.007 14.76 
" clip-path="url(#p20be51bf7b)" style="fill: none; stroke: #b0b0b0; stroke-width: 2; stroke-linecap: square"/>
     </g>
     <g id="line2d_127"/>
    </g>
    <g id="xtick_41">
     <g id="line2d_128">
      <path d="M 531.098 260.12 
L 531.098 14.76 
" clip-path="url(#p20be51bf7b)" style="fill: none; stroke: #b0b0b0; stroke-width: 2; stroke-linecap: square"/>
     </g>
     <g id="line2d_129"/>
    </g>
    <g id="xtick_42">
     <g id="line2d_130">
      <path d="M 544.189 260.12 
L 544.189 14.76 
" clip-path="url(#p20be51bf7b)" style="fill: none; stroke: #b0b0b0; stroke-width: 2; stroke-linecap: square"/>
     </g>
     <g id="line2d_131"/>
    </g>
    <g id="text_2">
     <!-- Compartimento B -->
     <g transform="translate(337.9325 282.816875) scale(0.2 -0.2)">
      <defs>
       <path id="DejaVuSans-42" d="M 1259 2228 
L 1259 519 
L 2272 519 
Q 2781 519 3026 730 
Q 3272 941 3272 1375 
Q 3272 1813 3026 2020 
Q 2781 2228 2272 2228 
L 1259 2228 
z
M 1259 4147 
L 1259 2741 
L 2194 2741 
Q 2656 2741 2882 2914 
Q 3109 3088 3109 3444 
Q 3109 3797 2882 3972 
Q 2656 4147 2194 4147 
L 1259 4147 
z
M 628 4666 
L 2241 4666 
Q 2963 4666 3353 4366 
Q 3744 4066 3744 3513 
Q 3744 3084 3544 2831 
Q 3344 2578 2956 2516 
Q 3422 2416 3680 2098 
Q 3938 1781 3938 1306 
Q 3938 681 3513 340 
Q 3088 0 2303 0 
L 628 0 
L 628 4666 
z
" transform="scale(0.015625)"/>
      </defs>
      <use xlink:href="#DejaVuSans-43"/>
      <use xlink:href="#DejaVuSans-6f" x="69.824219"/>
      <use xlink:href="#DejaVuSans-6d" x="131.005859"/>
      <use xlink:href="#DejaVuSans-70" x="228.417969"/>
      <use xlink:href="#DejaVuSans-61" x="291.894531"/>
      <use xlink:href="#DejaVuSans-72" x="353.173828"/>
      <use xlink:href="#DejaVuSans-74" x="394.287109"/>
      <use xlink:href="#DejaVuSans-69" x="433.496094"/>
      <use xlink:href="#DejaVuSans-6d" x="461.279297"/>
      <use xlink:href="#DejaVuSans-65" x="558.691406"/>
      <use xlink:href="#DejaVuSans-6e" x="620.214844"/>
      <use xlink:href="#DejaVuSans-74" x="683.59375"/>
      <use xlink:href="#DejaVuSans-6f" x="722.802734"/>
      <use xlink:href="#DejaVuSans-20" x="783.984375"/>
      <use xlink:href="#DejaVuSans-42" x="815.771484"/>
     </g>
    </g>
   </g>
   <g id="matplotlib.axis_4">
    <g id="ytick_22">
     <g id="line2d_132">
      <path d="M 295.46 260.12 
L 557.28 260.12 
" clip-path="url(#p20be51bf7b)" style="fill: none; stroke: #b0b0b0; stroke-width: 2; stroke-linecap: square"/>
     </g>
     <g id="line2d_133"/>
    </g>
    <g id="ytick_23">
     <g id="line2d_134">
      <path d="M 295.46 211.048 
L 557.28 211.048 
" clip-path="url(#p20be51bf7b)" style="fill: none; stroke: #b0b0b0; stroke-width: 2; stroke-linecap: square"/>
     </g>
     <g id="line2d_135"/>
    </g>
    <g id="ytick_24">
     <g id="line2d_136">
      <path d="M 295.46 161.976 
L 557.28 161.976 
" clip-path="url(#p20be51bf7b)" style="fill: none; stroke: #b0b0b0; stroke-width: 2; stroke-linecap: square"/>
     </g>
     <g id="line2d_137"/>
    </g>
    <g id="ytick_25">
     <g id="line2d_138">
      <path d="M 295.46 112.904 
L 557.28 112.904 
" clip-path="url(#p20be51bf7b)" style="fill: none; stroke: #b0b0b0; stroke-width: 2; stroke-linecap: square"/>
     </g>
     <g id="line2d_139"/>
    </g>
    <g id="ytick_26">
     <g id="line2d_140">
      <path d="M 295.46 63.832 
L 557.28 63.832 
" clip-path="url(#p20be51bf7b)" style="fill: none; stroke: #b0b0b0; stroke-width: 2; stroke-linecap: square"/>
     </g>
     <g id="line2d_141"/>
    </g>
    <g id="ytick_27">
     <g id="line2d_142">
      <path d="M 295.46 14.76 
L 557.28 14.76 
" clip-path="url(#p20be51bf7b)" style="fill: none; stroke: #b0b0b0; stroke-width: 2; stroke-linecap: square"/>
     </g>
     <g id="line2d_143"/>
    </g>
    <g id="ytick_28">
     <g id="line2d_144">
      <path d="M 295.46 247.852 
L 557.28 247.852 
" clip-path="url(#p20be51bf7b)" style="fill: none; stroke: #b0b0b0; stroke-width: 2; stroke-linecap: square"/>
     </g>
     <g id="line2d_145"/>
    </g>
    <g id="ytick_29">
     <g id="line2d_146">
      <path d="M 295.46 235.584 
L 557.28 235.584 
" clip-path="url(#p20be51bf7b)" style="fill: none; stroke: #b0b0b0; stroke-width: 2; stroke-linecap: square"/>
     </g>
     <g id="line2d_147"/>
    </g>
    <g id="ytick_30">
     <g id="line2d_148">
      <path d="M 295.46 223.316 
L 557.28 223.316 
" clip-path="url(#p20be51bf7b)" style="fill: none; stroke: #b0b0b0; stroke-width: 2; stroke-linecap: square"/>
     </g>
     <g id="line2d_149"/>
    </g>
    <g id="ytick_31">
     <g id="line2d_150">
      <path d="M 295.46 198.78 
L 557.28 198.78 
" clip-path="url(#p20be51bf7b)" style="fill: none; stroke: #b0b0b0; stroke-width: 2; stroke-linecap: square"/>
     </g>
     <g id="line2d_151"/>
    </g>
    <g id="ytick_32">
     <g id="line2d_152">
      <path d="M 295.46 186.512 
L 557.28 186.512 
" clip-path="url(#p20be51bf7b)" style="fill: none; stroke: #b0b0b0; stroke-width: 2; stroke-linecap: square"/>
     </g>
     <g id="line2d_153"/>
    </g>
    <g id="ytick_33">
     <g id="line2d_154">
      <path d="M 295.46 174.244 
L 557.28 174.244 
" clip-path="url(#p20be51bf7b)" style="fill: none; stroke: #b0b0b0; stroke-width: 2; stroke-linecap: square"/>
     </g>
     <g id="line2d_155"/>
    </g>
    <g id="ytick_34">
     <g id="line2d_156">
      <path d="M 295.46 149.708 
L 557.28 149.708 
" clip-path="url(#p20be51bf7b)" style="fill: none; stroke: #b0b0b0; stroke-width: 2; stroke-linecap: square"/>
     </g>
     <g id="line2d_157"/>
    </g>
    <g id="ytick_35">
     <g id="line2d_158">
      <path d="M 295.46 137.44 
L 557.28 137.44 
" clip-path="url(#p20be51bf7b)" style="fill: none; stroke: #b0b0b0; stroke-width: 2; stroke-linecap: square"/>
     </g>
     <g id="line2d_159"/>
    </g>
    <g id="ytick_36">
     <g id="line2d_160">
      <path d="M 295.46 125.172 
L 557.28 125.172 
" clip-path="url(#p20be51bf7b)" style="fill: none; stroke: #b0b0b0; stroke-width: 2; stroke-linecap: square"/>
     </g>
     <g id="line2d_161"/>
    </g>
    <g id="ytick_37">
     <g id="line2d_162">
      <path d="M 295.46 100.636 
L 557.28 100.636 
" clip-path="url(#p20be51bf7b)" style="fill: none; stroke: #b0b0b0; stroke-width: 2; stroke-linecap: square"/>
     </g>
     <g id="line2d_163"/>
    </g>
    <g id="ytick_38">
     <g id="line2d_164">
      <path d="M 295.46 88.368 
L 557.28 88.368 
" clip-path="url(#p20be51bf7b)" style="fill: none; stroke: #b0b0b0; stroke-width: 2; stroke-linecap: square"/>
     </g>
     <g id="line2d_165"/>
    </g>
    <g id="ytick_39">
     <g id="line2d_166">
      <path d="M 295.46 76.1 
L 557.28 76.1 
" clip-path="url(#p20be51bf7b)" style="fill: none; stroke: #b0b0b0; stroke-width: 2; stroke-linecap: square"/>
     </g>
     <g id="line2d_167"/>
    </g>
    <g id="ytick_40">
     <g id="line2d_168">
      <path d="M 295.46 51.564 
L 557.28 51.564 
" clip-path="url(#p20be51bf7b)" style="fill: none; stroke: #b0b0b0; stroke-width: 2; stroke-linecap: square"/>
     </g>
     <g id="line2d_169"/>
    </g>
    <g id="ytick_41">
     <g id="line2d_170">
      <path d="M 295.46 39.296 
L 557.28 39.296 
" clip-path="url(#p20be51bf7b)" style="fill: none; stroke: #b0b0b0; stroke-width: 2; stroke-linecap: square"/>
     </g>
     <g id="line2d_171"/>
    </g>
    <g id="ytick_42">
     <g id="line2d_172">
      <path d="M 295.46 27.028 
L 557.28 27.028 
" clip-path="url(#p20be51bf7b)" style="fill: none; stroke: #b0b0b0; stroke-width: 2; stroke-linecap: square"/>
     </g>
     <g id="line2d_173"/>
    </g>
   </g>
   <g id="line2d_174">
    <path d="M 296.7691 258.8932 
L 555.9709 258.8932 
L 555.9709 15.49608 
L 296.7691 15.49608 
L 296.7691 260.12 
" clip-path="url(#p20be51bf7b)" style="fill: none; stroke: #000000; stroke-width: 2; stroke-linecap: square"/>
   </g>
   <g id="line2d_175">
    <path d="M 295.46 134.9864 
L 295.46 127.6256 
" clip-path="url(#p20be51bf7b)" style="fill: none; stroke: #87ceeb; stroke-width: 6; stroke-linecap: square"/>
   </g>
   <g id="line2d_176">
    <path d="M 295.46 134.9864 
L 295.46 127.6256 
" clip-path="url(#p20be51bf7b)" style="fill: none; stroke-dasharray: 3.7,1.6; stroke-dashoffset: 0; stroke: #808080"/>
   </g>
   <g id="line2d_177">
    <path d="M 295.46 125.172 
L 302.26732 125.172 
" clip-path="url(#p20be51bf7b)" style="fill: none; stroke: #000000; stroke-width: 3; stroke-linecap: square"/>
   </g>
   <g id="line2d_178">
    <path d="M 295.46 137.44 
L 302.26732 137.44 
" clip-path="url(#p20be51bf7b)" style="fill: none; stroke: #000000; stroke-width: 3; stroke-linecap: square"/>
   </g>
  </g>
 </g>
 <defs>
  <clipPath id="p87896cd4c6">
   <rect x="33.64" y="14.76" width="261.82" height="245.36"/>
  </clipPath>
  <clipPath id="p20be51bf7b">
   <rect x="295.46" y="14.76" width="261.82" height="245.36"/>
  </clipPath>
 </defs>
</svg>
